<?xml version="1.0" encoding="UTF-8"?>
<svg id="Layer_2" data-name="Layer 2" xmlns="http://www.w3.org/2000/svg" viewBox="0 0 460.85 90.61">
  <defs>
    <style>
      .cls-1 {
        fill: #5d9cf1;
      }

      .cls-1, .cls-2 {
        stroke-width: 0px;
      }

      .cls-2 {
        fill: #ffffff;
      }
    </style>
  </defs>
  <g id="logo">
    <g>
      <path class="cls-2" d="M169.39,21.33h22.05l-45.57,67.7h-7.19L92.01,21.33h22.28l28.06,42.54,27.04-42.54Z"/>
      <path class="cls-2" d="M286.15,56.89l-74.55.07c0,5.99,4.97,11.8,11.46,14.56,9.17,3.91,14.58,4.25,25.14,4.25,13.89,0,25.14-2.63,36.39-8.27v13.96c-7.34,4.93-21.27,8.95-39.77,8.95-12.41,0-23.28-1.31-30.92-4.88-7.51-3.51-11.35-6.23-15.29-12.06-3.73-5.53-6.13-11.94-6.13-18.93,0-10.48,4.28-18.44,12.1-25.4,8.74-7.78,21.71-10.02,37.24-10.02s26.18,4.31,34.24,11.71c8.32,7.64,10.1,16.47,10.1,24.33v1.72ZM213.26,44.52l53.16-.06c-1.1-4.13-4.16-7.42-8.42-9.86-4.27-2.44-9.64-4.13-16.85-4.13s-12.8,1.19-17.96,3.81c-4.64,2.36-8.26,6.07-9.92,10.24Z"/>
      <path class="cls-2" d="M321.34,21.33v8.49c9.5-6.66,21.16-9.99,32.83-9.99,6.48,0,12.5,1.09,18.08,3.27,5.57,2.18,9.06,5,11.74,8.97,2.86,4.22,4.35,9.81,4.35,18.05v38.66h-19.36v-35.47c0-6.9-2.67-11.86-5.91-14.83-3.24-2.96-8.62-4.87-16.23-4.87-9.72,0-18.5,3.66-25.52,9.99v45.18h-19.74V21.33h19.74Z"/>
      <path class="cls-2" d="M396.41,32.12L430.02,0h1.17s0,19.35,0,19.35h26.33v15.21h-26.33v27.4c0,8.51,5.16,12.75,13.4,12.75,5.92,0,10.55-1.4,16.27-5.21v15.67c-6.84,3.39-11.88,4.75-20.64,4.75-7.95,0-11.96-1.3-17.83-5.23-1.84-1.19-3.4-2.93-4.6-4.41-1.2-1.48-2.37-3.67-3.19-6.06-.81-2.39-1.22-6.96-1.22-13.69v-25.96h-16.98v-2.45Z"/>
      <path class="cls-1" d="M85.36,70.66v16.16c-10.86,2.53-21.48,3.8-31.85,3.8-17.12,0-29.76-3.18-39.43-9.54C4.41,74.71,0,66.19,0,55.5s4.13-19.77,13.55-26.38c9.41-6.61,21.58-9.62,37.76-9.62,5.63,0,10.68.34,15.17,1.01,4.48.67,10.01,1.92,16.6,3.77v16.48c-10.97-4.39-19.92-6.07-30.52-6.07-9.06,0-18.74,2.23-24.28,5.75-6.19,3.94-8.29,9.56-8.29,14.62,0,5.94,3.47,11.02,9.16,14.59,6.06,3.81,17.46,5.57,27.52,5.57,8.33,0,17.89-1.52,28.69-4.56Z"/>
    </g>
  </g>
</svg>